<svg width="72" height="72" viewBox="0 0 72 72" fill="none" xmlns="http://www.w3.org/2000/svg">
<path fill-rule="evenodd" clip-rule="evenodd" d="M35.8 0C53.7 0 56.4 0.2 59.8 1.9C61.8 3 64.7 5.1 66.2 6.7C67.7 8.2 69.6 11.2 70.4 13.3C71.7 16.2 72 21 72 35.2C72 45.3 71.5 55.2 71 57.3C70.4 59.3 68.5 62.6 66.8 64.6C65 66.6 61.8 69.1 59.8 70.1C56.5 71.8 53.5 72 36 72C18.3 72 15.6 71.8 12.3 70.1C10.2 69 7.3 66.9 5.8 65.3C4.3 63.8 2.4 60.8 1.6 58.8C0.3 55.8 0 50.9 0 35.7C0 19.1 0.3 15.9 1.9 12.5C2.9 10.3 5 7.3 6.6 5.9C8.2 4.4 10.9 2.5 12.5 1.7C14.9 0.4 19.3 0.1 35.8 0ZM54.4 16.3C54.8 17.3 55.8 17.9 57.3 17.8C58.9 17.6 59.5 16.9 59.5 15C59.5 13.2 58.9 12.4 57.3 12.2C56.1 12 54.8 12.5 54.4 13.2C54.1 13.9 54.1 15.3 54.4 16.2V16.3ZM21.2 26.1C20 28 18.7 31.2 18.4 33.1C18 35 18 38 18.4 39.6C18.7 41.2 20 44.2 21.2 46.1C22.5 48 25.5 50.6 28 51.9C30.5 53.1 34.1 54.1 36 54.1C37.9 54.1 41.5 53.1 44 51.9C46.5 50.6 49.5 48 50.8 46.1C52 44.2 53.3 41.2 53.6 39.6C54 38 54 35 53.6 33.1C53.3 31.2 52 28 50.8 26.1C49.5 24.2 46.5 21.6 44 20.3C41.5 19.1 37.9 18.1 36 18.1C34.1 18.1 30.5 19.1 28 20.3C25.5 21.6 22.5 24.2 21.2 26.1ZM37.5 24.6C40.3 24.9 42.4 26 44.5 28.1C47 30.6 47.5 31.9 47.5 36.1C47.5 40.4 47 41.5 44.2 44.3C41.4 47.1 40.3 47.6 36 47.6C31.7 47.6 30.6 47.1 27.8 44.3C25 41.5 24.5 40.4 24.5 36.2C24.5 32.5 25.1 30.6 26.9 28.5C28.1 27 30.2 25.4 31.4 25C32.5 24.5 35.3 24.3 37.5 24.6Z" fill="#F91212"/>
</svg>
