<svg width="67" height="66" viewBox="0 0 67 66" fill="none" xmlns="http://www.w3.org/2000/svg">
<path fill-rule="evenodd" clip-rule="evenodd" d="M33.1216 0C63.1216 0 63.1216 2.38419e-07 64.6216 2.3C65.9216 4.1 66.1216 9.3 66.1216 33C66.1216 56.7 65.9216 61.9 64.6216 63.8C63.1216 66 63.1216 66 33.1216 66C3.12164 66 3.12164 66 1.62164 63.7C0.321639 61.9 0.121638 56.6 0.0216381 33C-0.0783619 8 0.121639 4.2 1.62164 2.2C3.22164 -2.38419e-07 3.42164 0 33.1216 0ZM11.8216 18.6C12.7216 20.3 13.9216 21 15.9216 21C17.4216 21 19.2216 20.4 19.9216 19.7C20.6216 19.1 21.1216 17.3 21.1216 15.7C21.1216 14 20.4216 12.6 19.1216 12C18.0216 11.4 16.4216 11 15.6216 11C14.8216 11 13.3216 12.2 12.4216 13.6C10.9216 15.7 10.8216 16.5 11.9216 18.6H11.8216ZM35.8216 28.5C35.3216 29.1 35.0216 28.8 35.0216 27.7C35.0216 26.3 34.1216 26 30.5216 26H26.0216V54H35.0216C35.0216 41.7 35.5216 37 36.0216 35.6C36.7216 33.7 37.7216 33 39.8216 33C41.3216 33 43.1216 33.5 43.8216 34.2C44.6216 35.0667 45.0216 38.5667 45.0216 44.7V54H54.0216C54.0216 37.3 53.5216 32.8 52.5216 30.5C51.7216 28.6 50.1216 26.5 49.0216 26C47.9216 25.4 45.5216 25 43.8216 25C42.0216 25 39.6216 25.6 38.5216 26.3C37.4216 26.9 36.2216 27.9 35.8216 28.5ZM12.0216 54H21.0216V26H12.0216V54Z" fill="#F91212"/>
</svg>
