<svg width="72" height="72" viewBox="0 0 72 72" fill="none" xmlns="http://www.w3.org/2000/svg">
<path d="M21.5 3.4C17.5 5.3 12.7 8.6 10.3 11.1C8 13.5 4.8 18.2 3.3 21.5C0.9 26.6 0.5 28.8 0.5 36C0.5 43.2 0.9 45.4 3.3 50.5C4.8 53.8 8 58.5 10.3 60.9C12.8 63.5 17.4 66.6 21.5 68.5C25.4 70.3 29.1 71.6 29.8 71.4C30.7 71.1 31 67.6 31 58.5V46H22V36H31C31 26.7 31.7 22.7 32.5 21C33.3 19.4 35.4 17.3 37 16.5C38.7 15.7 42.7 15 46 15H52C52 22.4 51.9 22.5 47.8 23.2C45.4 23.6 42.9 24.7 42.2 25.7C41.5 26.7 41 29.4 41 31.8V36C51.4 36 51.5 36.1 51.2 38.8C51 40.3 50.7 42.5 50.4 43.8C50.1 45.7 49.4 46 45.5 46H41C41 67 41.4 72 42 72C42.5 72 46 70.6 49.8 69C53.7 67.2 58.4 64 61.2 61.2C63.9 58.6 67.2 53.8 68.7 50.5C71 45.5 71.5 43.1 71.5 36C71.5 28.8 71.1 26.6 68.7 21.5C67.2 18.2 64 13.6 61.7 11.2C59.4 8.8 56.2 6.1 54.5 5.2C52.9 4.3 49.5 2.8 47 1.8C44.2 0.7 39.9 0 35.5 0C29.7 0.1 27.3 0.6 21.5 3.4Z" fill="#F91212"/>
</svg>
