<svg width="78" height="66" viewBox="0 0 78 66" fill="none" xmlns="http://www.w3.org/2000/svg">
<path fill-rule="evenodd" clip-rule="evenodd" d="M38 0.0999726C46.7 -2.74442e-05 53.7 0.599972 61 1.99997C70.6 3.79997 71.8 4.29997 78 11L77.5 56L74.5 59C72.1 61.4 69.9 62.4 63.5 63.6C59.1 64.5 49.4 65.4 42 65.7C31.1 66.1 26.4 65.8 17.5 64.1C7.4 62.2 6.2 61.8 0 55L0.5 9.99997L3.5 6.99997C6 4.49997 8.1 3.69997 16 2.09997C21.9 0.899972 30.2 0.199973 38 0.0999726ZM30 47C47.8 36.5 53 33.3 52.9 33C52.9 32.7 47.7 29.5 41.3 25.8L29.8 19.1L30 47Z" fill="#F91212"/>
</svg>
