<svg width="74" height="64" viewBox="0 0 74 64" fill="none" xmlns="http://www.w3.org/2000/svg">
<path d="M43.4188 2.5083C41.3188 3.8083 38.7188 6.7083 37.6188 8.9083C36.5188 11.1083 35.6188 14.5083 35.6188 16.4083V19.9083C29.0188 18.9083 24.6188 17.7083 21.6188 16.6083C18.6188 15.4083 14.1188 13.0083 11.6188 11.1083C9.11876 9.2083 6.31876 6.9083 5.41876 5.8083C4.41876 4.8083 3.21876 4.1083 2.61876 4.4083C2.11876 4.7083 1.31876 6.6083 1.01876 8.7083C0.718758 11.0083 1.01876 13.8083 2.11876 16.4083C3.01876 18.6083 4.51876 21.3083 5.41876 22.3083C7.01876 24.1083 7.01876 24.2083 3.91876 23.6083C1.61876 23.1083 0.618758 23.3083 0.618758 24.1083C0.618758 24.8083 1.51876 27.3083 2.61876 29.6083C3.91876 32.3083 6.01876 34.7083 8.41876 36.1083L12.1188 38.4083C7.81876 38.8083 6.61876 39.1083 6.61876 39.4083C6.61876 39.7083 7.61876 41.3083 8.91876 43.1083C10.2188 44.9083 13.2188 47.2083 16.1188 48.4083L21.1188 50.6083C12.6188 54.6083 7.61876 56.0083 4.61876 56.4083C1.21876 56.8083 -0.481242 57.4083 0.118758 57.9083C0.718758 58.4083 4.51876 60.0083 8.61876 61.4083C13.4188 63.0083 18.2188 63.9083 22.1188 63.9083C25.4188 63.9083 31.0188 63.0083 34.6188 61.9083C38.2188 60.9083 44.0188 58.1083 47.6188 55.7083C51.6188 53.0083 55.6188 49.2083 58.4188 45.4083C60.8188 42.1083 63.6188 36.9083 64.7188 33.9083C65.8188 30.9083 67.0188 25.6083 67.4188 22.1083C68.0188 17.0083 68.6188 15.2083 70.9188 13.1083C72.4188 11.6083 73.6188 10.1083 73.6188 9.7083C73.6188 9.2083 72.8188 9.0083 71.9188 9.0083C70.9188 9.1083 69.8188 9.1083 69.4188 9.0083C68.9188 9.0083 69.5188 7.7083 70.6188 6.2083C71.8188 4.6083 72.6188 3.2083 72.6188 2.9083C72.6188 2.6083 70.6188 3.0083 68.3188 3.8083C64.3188 5.2083 63.9188 5.1083 59.9188 2.6083C56.9188 0.708299 54.3188 -0.0917006 51.4188 0.00829936C48.6188 0.00829936 45.8188 0.908299 43.4188 2.5083Z" fill="#F91212"/>
</svg>
